# xmcd
#
# Track frame offsets:
#	150
#	17660
#	34170
#	54887
#	75749
#	93277
#	110004
#	125911
#	142555
#	159560
#	172621
#	191231
#	206701
#	231601
#	249364
#	266228
#
# Disc length: 3794
#
# Revision: 1
# Processed by: cddbd v1.5.1PL0 Copyright (c) Steve Scherf et al.
# Submitted via: dBpowerAMP V4.0
# Normalized: r0:TDELIM( - )
#
DISCID=d80ed010
DTITLE=Various Artist - Charts only - Black
DYEAR=2000
DGENRE=Blues
TTITLE0=Sabrina Setlur - Du liebst mich nicht
TTITLE1=2-4 Family - Lean On Me
TTITLE2=Ginuwine - When Doves Cry
TTITLE3=3T - 24/7
TTITLE4=TQ - Westside
TTITLE5=Lamar - Shine
TTITLE6=The Pasadenas - Lets Stay Together
TTITLE7=Diana King - Shy Guy
TTITLE8=Bone Thugs-n-Harmony - Tha Crossroads
TTITLE9=O'Jays - Love Train
TTITLE10=Bill Withers - Lovely Day
TTITLE11=Xscape - Just Kickin' It
TTITLE12=The Chimes - I Still Haven't Found What I'm Looking For
TTITLE13=Labelle - Lady Marmelade
TTITLE14=Down Low - Once Upon A Time
TTITLE15=Gregory Abbot - Shake you down
EXTD=
EXTT0=
EXTT1=
EXTT2=
EXTT3=
EXTT4=
EXTT5=
EXTT6=
EXTT7=
EXTT8=
EXTT9=
EXTT10=
EXTT11=
EXTT12=
EXTT13=
EXTT14=
EXTT15=
PLAYORDER=
